<?xml version="1.0" encoding="UTF-8"?>
<svg id="Ebene_1" data-name="Ebene 1" xmlns="http://www.w3.org/2000/svg" viewBox="0 0 500 385.59">
  <defs>
    <style>
      .cls-1 {
        fill: #fff;
      }
    </style>
  </defs>
  <path class="cls-1" d="m241.42,370.66c5.52,0,10.01-4.47,10.04-10,0-1.88,2.2-188.24,114.25-251.55,4.83-2.73,6.53-8.85,3.8-13.68-2.73-4.83-8.85-6.53-13.68-3.8-50.89,28.76-88.55,84.58-108.91,161.42-15.17,57.27-15.54,105.51-15.54,107.53-.02,5.54,4.45,10.06,10,10.08h.05Z"/>
  <path class="cls-1" d="m481.25,8.78c-6.5-1.23-160.04-29.18-232.42,43.78-30.55,30.8-44.53,71.33-40.41,117.22,3.07,34.18,15.01,59.17,15.52,60.21,2.42,4.99,8.43,7.08,13.42,4.66,4.99-2.42,7.08-8.42,4.66-13.42-.43-.9-42.64-90.3,21.07-154.53,51.5-51.91,155.45-45.65,196.85-40.71-11.21,14.54-25.37,37.31-22.06,56.18,2.06,11.75,4.14,85.7-36.07,130.23-22.18,24.56-53.71,35.56-93.71,32.69-5.49-.4-10.34,3.77-10.73,9.3-.4,5.53,3.77,10.34,9.3,10.74,4.69.34,9.28.5,13.78.5,40.07,0,72.41-13.35,96.27-39.77,46.17-51.12,43.41-133.13,40.95-147.16-2.47-14.12,16.46-40.06,28.96-53.1,2.56-2.66,3.45-6.5,2.33-10.02-1.12-3.51-4.08-6.13-7.7-6.81Z"/>
  <path class="cls-1" d="m101.79,183.4c-4.93-2.55-10.99-.62-13.54,4.3-2.55,4.93-.62,10.99,4.3,13.54,79.47,41.14,85.82,171.41,85.87,172.72.22,5.4,4.67,9.63,10.03,9.63.14,0,.28,0,.41,0,5.54-.23,9.85-4.9,9.63-10.44-.24-5.83-6.84-143.21-96.71-189.73Z"/>
  <path class="cls-1" d="m25.09,179.1c-2.28,16.61,1.44,72.49,33.63,105.6,17.21,17.71,39.61,26.64,66.73,26.64,4.74,0,9.62-.27,14.65-.82,5.51-.6,9.5-5.55,8.9-11.07-.6-5.51-5.56-9.5-11.07-8.9-27.31,2.97-49.12-3.71-64.81-19.85-28.83-29.66-29.25-80.71-28.13-88.86,1.77-12.86-6.5-27.11-14.48-37.5,31.43-4.43,98-9.04,132.98,23.74,45.05,42.21,19.39,102.99,18.26,105.61-2.22,5.07.09,10.99,5.16,13.22,5.08,2.23,11-.07,13.24-5.15.34-.77,8.36-19.26,9.67-44.07,1.77-33.49-9.5-62.63-32.59-84.26C122.93,102.57,13.45,126.67,8.82,127.73c-3.59.81-6.45,3.54-7.44,7.08-1,3.55.04,7.36,2.68,9.93,9.17,8.88,22.19,25.95,21.03,34.36Z"/>
</svg>