<?xml version="1.0" encoding="UTF-8"?>
<svg id="Ebene_1" data-name="Ebene 1" xmlns="http://www.w3.org/2000/svg" viewBox="0 0 42.22 41.33">
  <defs>
    <style>
      .cls-1 {
        fill: none;
        stroke: #fff;
        stroke-miterlimit: 10;
        stroke-width: 2px;
      }
    </style>
  </defs>
  <path class="cls-1" d="m11.8,35.67h1.03c2.25,0,2.83,3,6,3h7.97"/>
  <rect class="cls-1" x="31.8" y="22.67" width="9" height="6" rx="2" ry="2"/>
  <rect class="cls-1" x="30.8" y="16.67" width="9" height="6" rx="2" ry="2"/>
  <rect class="cls-1" x="30.8" y="28.67" width="9" height="6" rx="2" ry="2"/>
  <rect class="cls-1" x="28.8" y="34.67" width="9" height="5" rx="2" ry="2"/>
  <rect class="cls-1" x="1.8" y="16.67" width="10" height="22"/>
  <path class="cls-1" d="m20,30.67c4.74-1.77,7.7-6.23,7.8-11v-5c0-.73,1-2.33,1-5.58s-.6-4.51-2-6.32c-1.42-1.83-4-1.31-4,.46v1.44c0,3.95-1.45,6.63-4.08,9.59l-3.92,4.41h-2"/>
  <line class="cls-1" x1="6.8" y1="19.67" x2="6.8" y2="23.67"/>
</svg>