<?xml version="1.0" encoding="UTF-8"?>
<svg id="Layer_1" data-name="Layer 1" xmlns="http://www.w3.org/2000/svg" viewBox="0 0 2091.67 1719.55">
  <defs>
    <style>
      .cls-1 {
        fill: #fff;
      }
    </style>
  </defs>
  <path class="cls-1" d="m834.98,808.21h-353.77c-24.62,0-44.55-19.92-44.55-44.55s19.92-44.55,44.55-44.55h353.77c24.62,0,44.55,19.92,44.55,44.55s-19.92,44.55-44.55,44.55Z"/>
  <path class="cls-1" d="m845.86,1031.46H75.77c-24.62,0-44.55-19.92-44.55-44.54s19.92-44.55,44.55-44.55h770.09c24.62,0,44.55,19.92,44.55,44.55s-19.92,44.54-44.55,44.54Z"/>
  <path class="cls-1" d="m1345.8,1705.76c-230.13,0-441.38-105.67-579.5-289.9-14.79-19.67-10.79-47.59,8.92-62.34,19.66-14.79,47.59-10.79,62.34,8.92,121.16,161.57,306.43,254.23,508.25,254.23,350.07,0,634.88-284.82,634.88-634.88s-284.82-634.88-634.88-634.88c-201.98,0-387.35,92.83-508.55,254.75-14.71,19.62-42.68,23.75-62.39,8.96-19.66-14.75-23.71-42.67-8.96-62.38,138.21-184.58,349.55-290.43,579.9-290.43,399.19,0,723.98,324.8,723.98,723.98s-324.8,723.98-723.98,723.98Z"/>
  <path class="cls-1" d="m1345.8,346.9c-24.62,0-44.54-19.92-44.54-44.55V67.78c0-24.62,19.92-44.55,44.54-44.55s44.55,19.92,44.55,44.55v234.56c0,24.62-19.92,44.55-44.55,44.55Z"/>
  <path class="cls-1" d="m1466.74,112.33h-241.88c-24.62,0-44.55-19.92-44.55-44.54s19.92-44.55,44.55-44.55h241.88c24.62,0,44.54,19.92,44.54,44.55s-19.92,44.54-44.54,44.54Z"/>
  <path class="cls-1" d="m1345.8,1115.03c-12.35,0-24.62-5.13-33.45-15.14l-158.52-180.19c-16.23-18.44-14.44-46.59,4.05-62.87,18.4-16.23,46.5-14.44,62.86,4.05l158.53,180.19c16.22,18.45,14.44,46.59-4.05,62.87-8.44,7.44-18.93,11.09-29.41,11.09Z"/>
  <path class="cls-1" d="m1345.8,1115.03c-12.53,0-25.01-5.26-33.8-15.58-16.05-18.66-13.88-46.76,4.83-62.77l316.96-271.68c18.66-16.05,46.81-13.92,62.78,4.83,16.05,18.66,13.88,46.77-4.83,62.78l-316.97,271.68c-8.39,7.22-18.7,10.74-28.97,10.74Z"/>
  <path class="cls-1" d="m834.98,1248.89H316.86c-24.62,0-44.54-19.92-44.54-44.55s19.92-44.55,44.54-44.55h518.13c24.62,0,44.55,19.92,44.55,44.55s-19.92,44.55-44.55,44.55Z"/>
</svg>