<?xml version="1.0" encoding="utf-8"?>
<!-- Generator: $$$/GeneralStr/196=Adobe Illustrator 27.6.0, SVG Export Plug-In . SVG Version: 6.00 Build 0)  -->
<svg version="1.1" id="Ebene_1" xmlns="http://www.w3.org/2000/svg" xmlns:xlink="http://www.w3.org/1999/xlink" x="0px" y="0px"
	 viewBox="0 0 48 48" style="enable-background:new 0 0 48 48;" xml:space="preserve">
<style type="text/css">
	.st0{fill:#FFFFFF;}
</style>
<path class="st0" d="M41.3,24c0-0.4-0.2-0.7-0.6-0.9L8.2,7.5C7.7,7.3,7.1,7.5,6.8,8c-0.1,0.3-0.1,0.6,0,0.9L13.6,23l9.6,0
	c0.6,0,1,0.5,1,1c0,0.5-0.4,1-1,1l-9.6,0L6.8,39.1C6.7,39.5,6.7,40,7,40.3l0,0c0.3,0.3,0.8,0.4,1.1,0.2l32.5-15.6
	C41,24.7,41.3,24.4,41.3,24z"/>
</svg>
