<?xml version="1.0" encoding="UTF-8"?>
<svg id="Layer_1" data-name="Layer 1" xmlns="http://www.w3.org/2000/svg" viewBox="0 0 1564.44 949.33">
  <defs>
    <style>
      .cls-1 {
        fill: none;
        stroke: #fff;
        stroke-linecap: round;
        stroke-linejoin: round;
        stroke-width: 30px;
      }
    </style>
  </defs>
  <path class="cls-1" d="m416.29,114.15l-136.95-76.08c-10.27-5.7-23.22-1.68-28.44,8.84L35.39,480.65c-4.88,9.82-1.2,21.75,8.36,27.12l132.91,74.62c10.21,5.73,23.14,1.81,28.44-8.63l219.55-432.28c5.02-9.88,1.32-21.95-8.36-27.33Z"/>
  <path class="cls-1" d="m1527.09,480.65l-215.51-433.75c-5.23-10.52-18.18-14.54-28.44-8.84l-136.95,76.08c-9.68,5.38-13.38,17.45-8.36,27.33l219.55,432.28c5.3,10.44,18.23,14.36,28.44,8.63l132.91-74.62c9.57-5.37,13.24-17.3,8.36-27.12Z"/>
  <path class="cls-1" d="m782.92,853.04l88.18,53.62c28.3,17.21,65,10.62,85.54-15.36h0c22.71-28.72,17.51-70.48-11.55-92.75l-52.37-40.15"/>
  <line class="cls-1" x1="233.08" y1="518.67" x2="379.24" y2="607.55"/>
  <path class="cls-1" d="m950.04,652.36l87.09,71.17c25.28,20.66,28.5,58.12,7.12,82.8h0c-19.96,23.03-54.35,26.66-78.67,8.3l-59.84-45.16"/>
  <path class="cls-1" d="m1005.92,543.88l124.75,98.88c27.05,21.44,30.2,61.34,6.86,86.76h0c-20.92,22.79-55.84,25.72-80.26,6.72l-94.58-73.55"/>
  <path class="cls-1" d="m861.19,291.26l356.07,270.21c26.8,20.52,30.71,59.4,8.54,84.85h0c-20.44,23.47-55.68,26.82-80.17,7.63l-73.92-57.91"/>
  <path class="cls-1" d="m400.3,189.42l13.38,8.26c32.74,13.81,70.08,11.39,100.77-6.53l110.78-64.68c34.37-20.07,75.62-24.65,113.55-12.6l27.42,8.7"/>
  <path class="cls-1" d="m1163.41,191.85l-18.92,5.3c-22.91,5.26-46.93,2.55-68.1-7.66l-131.68-63.57c-63.88-30.84-138.89-27.97-200.22,7.65l-117.63,68.31c-13.48,7.83-24.42,19.38-31.49,33.28l-54.78,107.54c-9.01,17.7-2.46,39.35,14.85,49.08h0c33.04,18.57,74.35,13.17,101.51-13.26l80.92-76.44c26.09-24.65,63.86-32.46,97.59-20.19l25.74,9.36"/>
  <path class="cls-1" d="m406.95,566.7l-39.78,63.15c-16.87,26.77-9.07,62.13,17.5,79.32l.23.15c27.09,17.53,63.29,9.48,80.4-17.89l39.56-63.3c16.52-26.44,9.1-61.21-16.78-78.6h0c-27.04-18.17-63.75-10.4-81.12,17.17Z"/>
  <path class="cls-1" d="m712.12,745.18l-39.78,63.15c-16.87,26.77-9.07,62.13,17.5,79.32l.22.15c27.09,17.53,63.29,9.48,80.4-17.89l39.56-63.3c16.52-26.44,9.1-61.21-16.78-78.6h0c-27.04-18.17-63.75-10.4-81.12,17.17Z"/>
  <path class="cls-1" d="m623.73,658.94l-68.62,111.22c-17.04,27.61-8.88,63.78,18.36,81.41l.56.37c28.18,18.24,65.86,9.64,83.34-19.02l68.06-111.58c16.87-27.66,8.58-63.73-18.67-81.25h0c-28.08-18.05-65.5-9.55-83.03,18.86Z"/>
  <path class="cls-1" d="m526.83,592.77l-79.01,129.04c-16.37,26.73-8.43,61.63,17.88,78.66l.3.19c27.3,17.67,63.8,9.32,80.72-18.45l78.71-129.24c16.66-27.35,7.89-63.03-19.55-79.54h0c-27.19-16.36-62.48-7.73-79.05,19.33Z"/>
  <line class="cls-1" x1="1323.55" y1="507.15" x2="1217.26" y2="561.47"/>
</svg>